<?xml version="1.0" encoding="utf-8"?>
<!-- Generator: Adobe Illustrator 22.0.1, SVG Export Plug-In . SVG Version: 6.00 Build 0)  -->
<svg version="1.1" xmlns="http://www.w3.org/2000/svg" xmlns:xlink="http://www.w3.org/1999/xlink" x="0px" y="0px"
	 viewBox="0 0 512 512" style="enable-background:new 0 0 512 512;" xml:space="preserve">
<style type="text/css">
	.st0{fill:#7585F0;stroke:#000000;stroke-width:20;stroke-linecap:round;stroke-linejoin:round;stroke-miterlimit:10;}
	.st1{fill:none;stroke:#000000;stroke-width:20;stroke-linecap:round;stroke-linejoin:round;stroke-miterlimit:10;}
	.st2{fill:#FFFFFF;}
	.st3{fill:#E4B75C;stroke:#000000;stroke-width:20;stroke-linecap:round;stroke-linejoin:round;stroke-miterlimit:10;}
	.st4{fill:#DE5A5A;stroke:#000000;stroke-width:20;stroke-linecap:round;stroke-linejoin:round;stroke-miterlimit:10;}
	.st5{fill:#D4F4FF;}
	.st6{fill:#D4F4FF;stroke:#000000;stroke-width:20;stroke-linecap:round;stroke-linejoin:round;stroke-miterlimit:10;}
	.st7{fill:#F2DF98;stroke:#000000;stroke-width:20;stroke-linecap:round;stroke-linejoin:round;stroke-miterlimit:10;}
	.st8{fill:#FFFFFF;stroke:#000000;stroke-width:20;stroke-linecap:round;stroke-linejoin:round;stroke-miterlimit:10;}
	.st9{fill:#87BF8C;stroke:#000000;stroke-width:20;stroke-linecap:round;stroke-linejoin:round;stroke-miterlimit:10;}
	.st10{fill:#7585F0;}
	.st11{fill:#EDD4B4;stroke:#000000;stroke-width:20;stroke-linecap:round;stroke-linejoin:round;stroke-miterlimit:10;}
	.st12{fill:#E4B75C;}
	.st13{fill:#AACF9A;stroke:#000000;stroke-width:20;stroke-linecap:round;stroke-linejoin:round;stroke-miterlimit:10;}
	.st14{fill:#E8C673;stroke:#000000;stroke-width:20;stroke-linecap:round;stroke-linejoin:round;stroke-miterlimit:10;}
	.st15{fill:#F2DF98;}
	.st16{fill:#D0524E;stroke:#000000;stroke-width:20;stroke-linecap:round;stroke-linejoin:round;stroke-miterlimit:10;}
	.st17{fill:#87BF8C;}
	.st18{fill:#AACF9A;}
	.st19{fill:#DE5A5A;}
	.st20{fill:#E8C673;}
	.st21{fill:#7ACBAA;}
	.st22{fill:#EFCDC2;}
	.st23{fill:#6B7DFA;stroke:#000000;stroke-width:20;stroke-linecap:round;stroke-linejoin:round;stroke-miterlimit:10;}
</style>
<g id="GUIDELINES">
</g>
<g id="ICON_1_">
	<g>
		<g>
			<path class="st0" d="M94.2,363.2V261.7c0-13,10.5-23.5,23.5-23.5h321.8c34.6,0,62.6,28,62.6,62.5v0c0,34.5-28,62.5-62.6,62.5"/>
			<path class="st8" d="M167.1,280.3h272.3c11.3,0,20.4,9.2,20.4,20.4c0,11.3-9.2,20.4-20.4,20.4H94.2v-40.9"/>
		</g>
		<g>
			<path class="st19" d="M351.1,217.2c-16.8,16.8-37.1,23.5-56.6,20.1c-12.9-2.3-25.6-8.9-36.7-20.1c-27.9-27.9-35.7-88.7-7.8-116.6
				c18.4-18.4,44.4-24.7,68-18.8c12.1,3,23.6,9.3,33.1,18.8"/>
			<path class="st4" d="M290.1,100.6c27.9-27.9,73.2-27.9,101.1,0c27.9,27.9,20.1,88.7-7.8,116.6c-18.7,18.7-37.8,24.9-61.4,18.5"/>
			<path class="st9" d="M349.3,71.3c-14.2,14.2-45.3,6.1-45.3,6.1s-8.1-31.1,6.1-45.3c14.2-14.2,45.3-6.1,45.3-6.1
				S363.6,57.1,349.3,71.3z"/>
			<path class="st1" d="M324.3,234.7c-9.7,3.5-19.8,4.3-29.8,2.6c-12.9-2.3-25.6-8.9-36.7-20.1c-27.9-27.9-35.7-88.7-7.8-116.6
				c18.4-18.4,44.4-24.7,68-18.8"/>
		</g>
		<g>
			<path class="st4" d="M313.1,363.2h185v101.6c0,13-10.5,23.5-23.5,23.5h-402c-34.6,0-62.6-28-62.6-62.5v0
				c0-34.5,28-62.5,62.6-62.5h152.1"/>
			<path class="st8" d="M425.2,446.2H72.6c-11.3,0-20.4-9.2-20.4-20.4c0-11.3,9.2-20.4,20.4-20.4h425.5v40.9"/>
		</g>
	</g>
</g>
</svg>
